<svg id="svg" version="1.1" xmlns="http://www.w3.org/2000/svg" xmlns:xlink="http://www.w3.org/1999/xlink" width="400" height="400" viewBox="0, 0, 400,400"><g id="svgg"><path id="path0" d="M217.000 40.976 C 217.660 41.299,218.506 41.572,218.880 41.582 C 219.255 41.592,220.560 41.870,221.780 42.200 C 223.001 42.530,225.035 43.078,226.300 43.419 C 227.565 43.759,230.220 44.592,232.200 45.270 C 237.039 46.928,237.156 46.961,236.400 46.473 C 234.891 45.497,224.140 42.257,218.337 41.028 C 217.753 40.905,216.943 40.710,216.537 40.596 C 216.132 40.481,216.340 40.653,217.000 40.976 M239.559 48.037 C 240.966 48.685,242.206 49.127,242.314 49.019 C 242.422 48.911,242.081 48.659,241.555 48.459 C 241.030 48.259,239.903 47.804,239.051 47.448 C 236.474 46.370,236.826 46.779,239.559 48.037 M246.383 51.196 C 248.464 52.280,250.238 53.096,250.325 53.009 C 250.502 52.831,243.393 49.193,242.908 49.213 C 242.739 49.220,244.302 50.112,246.383 51.196 M251.600 53.967 C 252.150 54.415,252.741 54.786,252.913 54.791 C 253.355 54.804,261.285 60.151,264.400 62.536 C 273.236 69.304,283.458 79.803,288.802 87.600 C 289.330 88.370,289.860 89.090,289.981 89.200 C 290.102 89.310,290.456 89.895,290.768 90.500 C 291.080 91.105,291.485 91.600,291.668 91.600 C 291.850 91.600,292.000 91.783,292.000 92.006 C 292.000 92.450,294.804 96.800,295.089 96.800 C 295.495 96.800,291.367 90.390,288.262 86.200 C 279.142 73.892,262.150 58.722,252.000 53.827 L 250.600 53.152 251.600 53.967 M295.200 97.350 C 295.200 97.726,297.310 101.223,297.452 101.082 C 297.627 100.907,295.635 97.200,295.366 97.200 C 295.275 97.200,295.200 97.267,295.200 97.350 M299.332 105.300 C 299.452 105.575,300.256 107.420,301.119 109.400 C 303.030 113.786,304.832 118.626,305.090 120.068 C 305.436 122.001,306.585 122.806,308.916 122.750 L 311.000 122.700 308.859 122.389 C 306.253 122.010,306.215 121.974,305.256 118.993 C 303.835 114.578,299.758 104.800,299.338 104.800 C 299.215 104.800,299.212 105.025,299.332 105.300 M312.600 123.200 C 313.040 123.389,313.940 123.535,314.600 123.525 L 315.800 123.505 314.600 123.200 C 313.940 123.032,313.040 122.886,312.600 122.875 L 311.800 122.856 312.600 123.200 M316.800 124.000 C 317.130 124.213,317.760 124.378,318.200 124.366 L 319.000 124.344 318.200 124.000 C 317.004 123.486,316.005 123.486,316.800 124.000 M319.790 124.784 C 319.932 125.013,320.517 125.200,321.090 125.200 C 322.344 125.200,322.199 125.008,320.666 124.640 C 319.923 124.462,319.621 124.511,319.790 124.784 M322.600 125.600 C 322.736 125.820,323.242 125.987,323.724 125.972 C 324.569 125.945,324.571 125.931,323.800 125.600 C 322.699 125.127,322.308 125.127,322.600 125.600 M324.974 126.357 C 325.124 126.601,325.509 126.800,325.829 126.800 C 326.149 126.800,326.723 126.959,327.105 127.153 C 327.487 127.348,328.250 127.683,328.800 127.898 C 332.670 129.414,344.218 135.929,345.200 137.151 C 345.310 137.288,346.210 138.023,347.200 138.784 C 351.008 141.713,356.361 147.098,359.143 150.800 C 359.722 151.570,360.298 152.290,360.424 152.400 C 360.550 152.510,361.235 153.455,361.946 154.500 C 363.341 156.551,364.156 157.152,362.939 155.234 C 357.637 146.870,346.718 136.783,337.343 131.589 C 331.825 128.532,324.369 125.378,324.974 126.357 M372.800 175.859 C 372.470 175.950,371.866 177.054,371.457 178.312 C 370.211 182.154,366.885 189.282,365.132 191.872 C 364.509 192.792,364.000 193.649,364.000 193.776 C 364.000 193.904,363.345 194.951,362.545 196.104 C 338.626 230.549,292.866 239.168,257.914 215.813 L 253.473 212.845 251.636 213.898 C 216.606 233.975,171.922 233.857,136.017 213.592 C 134.890 212.956,134.512 212.903,133.972 213.306 C 119.900 223.785,105.088 228.755,87.833 228.787 C 79.788 228.802,74.771 228.144,67.400 226.106 C 45.893 220.161,27.585 204.032,18.696 183.200 C 17.360 180.070,16.400 177.464,16.400 176.970 C 16.400 176.069,15.572 175.887,14.986 176.660 C 14.678 177.067,14.420 177.906,14.413 178.524 C 14.405 179.168,14.230 179.542,14.000 179.400 C 13.751 179.246,13.600 180.004,13.600 181.400 C 13.600 182.796,13.449 183.554,13.200 183.400 C 12.950 183.245,12.800 184.070,12.800 185.600 C 12.800 186.946,12.643 187.950,12.450 187.831 C 11.988 187.545,11.902 206.397,12.363 206.964 C 12.558 207.204,12.814 208.300,12.933 209.400 C 13.196 211.850,13.778 214.868,14.400 217.000 C 14.656 217.880,14.962 219.097,15.079 219.705 C 15.196 220.313,15.451 220.908,15.646 221.029 C 15.841 221.149,16.000 221.591,16.000 222.011 C 16.000 222.432,16.360 223.417,16.800 224.200 C 17.240 224.983,17.600 225.883,17.600 226.200 C 17.600 226.517,17.960 227.417,18.400 228.200 C 18.840 228.983,19.200 229.889,19.200 230.212 C 19.200 230.535,19.380 230.800,19.600 230.800 C 19.820 230.800,20.000 231.171,20.000 231.624 C 20.000 232.077,20.180 232.336,20.400 232.200 C 20.628 232.059,20.800 232.404,20.800 233.000 C 20.800 233.596,20.972 233.941,21.200 233.800 C 21.420 233.664,21.600 233.923,21.600 234.376 C 21.600 234.829,21.780 235.200,22.000 235.200 C 22.220 235.200,22.400 235.436,22.400 235.725 C 22.400 236.013,22.760 236.636,23.200 237.108 C 23.640 237.580,24.000 238.154,24.000 238.383 C 24.000 238.612,24.180 238.800,24.400 238.800 C 24.620 238.800,24.800 239.025,24.801 239.300 C 24.801 239.575,25.331 240.419,25.978 241.176 C 26.624 241.932,27.084 242.665,26.998 242.803 C 26.913 242.941,27.193 243.307,27.621 243.615 C 28.050 243.924,28.400 244.364,28.400 244.593 C 28.400 244.822,28.940 245.455,29.600 246.000 C 30.260 246.545,30.800 247.118,30.800 247.274 C 30.800 247.587,37.987 254.881,38.610 255.200 C 38.824 255.310,38.950 255.549,38.890 255.730 C 38.829 255.912,39.144 255.945,39.590 255.803 C 40.230 255.600,40.400 255.725,40.400 256.397 C 40.400 256.864,40.580 257.136,40.800 257.000 C 41.020 256.864,41.200 256.915,41.200 257.112 C 41.200 257.310,41.605 257.664,42.100 257.898 C 43.028 258.338,44.376 259.320,45.587 260.440 C 45.968 260.792,46.847 261.331,47.540 261.637 C 48.233 261.944,48.800 262.331,48.800 262.498 C 48.800 262.664,49.070 262.800,49.400 262.800 C 49.730 262.800,50.000 262.980,50.000 263.200 C 50.000 263.420,50.349 263.600,50.776 263.600 C 51.203 263.600,51.664 263.780,51.800 264.000 C 51.936 264.220,52.357 264.400,52.735 264.400 C 53.114 264.400,53.683 264.760,54.000 265.200 C 54.317 265.640,54.897 266.000,55.288 266.000 C 55.680 266.000,56.000 266.180,56.000 266.400 C 56.000 266.620,56.272 266.800,56.605 266.800 C 56.938 266.800,57.568 266.980,58.005 267.200 C 58.442 267.420,59.158 267.780,59.595 268.000 C 60.032 268.220,60.752 268.400,61.195 268.400 C 61.638 268.400,62.000 268.541,62.000 268.713 C 62.000 268.885,62.485 269.066,63.078 269.115 C 63.670 269.164,64.255 269.339,64.378 269.503 C 64.500 269.668,65.140 269.864,65.800 269.939 C 66.460 270.014,67.060 270.239,67.133 270.438 C 67.207 270.637,67.747 270.808,68.333 270.818 C 69.444 270.836,72.705 271.627,73.400 272.047 C 73.620 272.180,74.646 272.315,75.681 272.347 C 76.715 272.379,77.996 272.570,78.527 272.772 C 79.732 273.231,96.540 273.350,96.261 272.899 C 96.149 272.717,97.347 272.524,98.923 272.470 C 100.499 272.416,101.962 272.198,102.174 271.986 C 102.386 271.774,103.233 271.600,104.056 271.600 C 104.879 271.600,105.664 271.420,105.800 271.200 C 105.936 270.980,106.667 270.800,107.424 270.800 C 108.181 270.800,108.800 270.620,108.800 270.400 C 108.800 270.180,109.329 270.000,109.976 270.000 C 110.623 270.000,111.264 269.820,111.400 269.600 C 111.536 269.380,112.051 269.200,112.544 269.200 C 113.579 269.200,115.592 268.343,115.597 267.900 C 115.599 267.735,116.151 267.600,116.824 267.600 C 117.537 267.600,117.944 267.433,117.800 267.200 C 117.664 266.980,117.868 266.800,118.252 266.800 C 118.874 266.800,123.891 264.517,124.400 264.002 C 124.510 263.891,125.005 263.575,125.500 263.300 C 125.995 263.025,126.805 262.575,127.300 262.300 C 127.795 262.025,128.290 261.708,128.400 261.596 C 128.510 261.484,129.274 260.944,130.097 260.396 C 130.921 259.848,131.596 259.265,131.597 259.100 C 131.599 258.935,131.960 258.800,132.400 258.800 C 132.840 258.800,133.200 258.648,133.200 258.461 C 133.200 257.123,137.692 257.857,138.333 259.300 C 138.407 259.465,138.722 259.600,139.033 259.600 C 139.345 259.600,139.600 259.780,139.600 260.000 C 139.600 260.220,140.061 260.400,140.624 260.400 C 141.204 260.400,141.540 260.573,141.400 260.800 C 141.260 261.027,141.596 261.200,142.176 261.200 C 142.739 261.200,143.200 261.380,143.200 261.600 C 143.200 261.820,143.635 262.000,144.167 262.000 C 144.698 262.000,145.193 262.135,145.267 262.300 C 145.457 262.728,148.768 264.400,149.426 264.400 C 149.728 264.400,150.617 264.760,151.400 265.200 C 152.183 265.640,153.179 266.000,153.612 266.000 C 154.045 266.000,154.400 266.180,154.400 266.400 C 154.400 266.620,154.940 266.800,155.600 266.800 C 156.260 266.800,156.800 266.980,156.800 267.200 C 156.800 267.420,157.340 267.600,158.000 267.600 C 158.660 267.600,159.200 267.780,159.200 268.000 C 159.200 268.220,159.572 268.400,160.026 268.400 C 160.481 268.400,161.156 268.562,161.526 268.760 C 161.897 268.958,162.830 269.179,163.600 269.251 C 164.370 269.324,165.090 269.504,165.200 269.651 C 165.310 269.799,166.030 269.979,166.800 270.051 C 167.570 270.124,168.290 270.305,168.400 270.454 C 168.510 270.603,169.410 270.778,170.400 270.843 C 171.390 270.908,172.294 271.094,172.409 271.257 C 172.524 271.420,173.469 271.598,174.509 271.652 C 175.549 271.705,176.400 271.857,176.400 271.989 C 176.400 272.121,177.435 272.267,178.700 272.314 C 179.965 272.361,181.450 272.532,182.000 272.693 C 183.334 273.085,203.001 273.025,206.800 272.618 C 210.668 272.203,210.517 272.229,211.100 271.865 C 211.401 271.677,211.600 271.754,211.600 272.056 C 211.600 272.448,211.707 272.453,212.080 272.080 C 212.344 271.816,213.298 271.600,214.200 271.600 C 215.102 271.600,216.011 271.430,216.220 271.221 C 216.429 271.013,217.410 270.804,218.400 270.756 C 219.390 270.708,220.392 270.524,220.627 270.347 C 220.861 270.169,221.626 269.980,222.327 269.927 C 223.027 269.873,223.600 269.688,223.600 269.515 C 223.600 269.342,223.991 269.200,224.469 269.200 C 224.946 269.200,225.621 268.949,225.969 268.643 C 226.316 268.337,228.310 267.517,230.400 266.822 C 232.490 266.126,234.650 265.363,235.200 265.125 C 235.750 264.887,236.560 264.555,237.000 264.387 C 240.998 262.859,245.418 260.790,250.062 258.270 L 253.523 256.392 258.062 259.374 C 260.558 261.013,263.106 262.815,263.725 263.378 C 264.344 263.940,265.019 264.400,265.225 264.400 C 265.431 264.400,265.600 264.580,265.600 264.800 C 265.600 265.020,265.870 265.200,266.200 265.200 C 266.530 265.200,266.800 265.380,266.800 265.600 C 266.800 265.820,267.160 266.000,267.600 266.000 C 268.040 266.000,268.400 266.150,268.400 266.333 C 268.400 266.517,268.625 266.680,268.900 266.696 C 269.489 266.731,272.110 267.710,272.400 268.002 C 272.735 268.341,275.413 269.200,276.134 269.200 C 276.506 269.200,277.168 269.380,277.605 269.600 C 278.042 269.820,278.758 270.180,279.195 270.400 C 279.632 270.620,280.431 270.800,280.971 270.800 C 281.511 270.800,282.046 270.951,282.160 271.135 C 282.273 271.319,283.006 271.493,283.787 271.523 C 284.568 271.552,285.554 271.761,285.978 271.988 C 286.401 272.215,287.940 272.400,289.397 272.400 C 290.984 272.400,291.952 272.554,291.810 272.783 C 291.222 273.735,313.063 272.798,313.694 271.844 C 313.897 271.537,313.990 271.558,313.994 271.914 C 313.998 272.298,314.196 272.323,314.774 272.014 C 315.199 271.786,316.099 271.600,316.774 271.600 C 317.448 271.600,318.000 271.457,318.000 271.282 C 318.000 271.107,318.675 270.918,319.499 270.863 C 320.324 270.807,321.170 270.590,321.379 270.381 C 321.589 270.171,322.174 270.000,322.680 270.000 C 323.186 270.000,323.600 269.857,323.600 269.683 C 323.600 269.508,324.680 269.125,326.000 268.833 C 327.320 268.540,328.400 268.143,328.400 267.950 C 328.400 267.758,328.940 267.600,329.600 267.600 C 330.260 267.600,330.800 267.420,330.800 267.200 C 330.800 266.980,331.036 266.800,331.325 266.800 C 331.613 266.800,332.198 266.485,332.625 266.100 C 333.051 265.715,333.850 265.338,334.400 265.262 C 334.950 265.186,335.460 264.961,335.533 264.762 C 335.607 264.563,336.022 264.400,336.457 264.400 C 336.892 264.400,337.136 264.220,337.000 264.000 C 336.864 263.780,336.999 263.600,337.301 263.600 C 337.602 263.600,338.236 263.240,338.708 262.800 C 339.180 262.360,339.844 262.000,340.183 262.000 C 340.522 262.000,340.800 261.820,340.800 261.600 C 340.800 261.380,341.081 261.200,341.424 261.200 C 341.767 261.200,341.936 261.020,341.800 260.800 C 341.664 260.580,341.923 260.400,342.376 260.400 C 342.829 260.400,343.200 260.220,343.200 260.000 C 343.200 259.780,343.481 259.600,343.824 259.600 C 344.167 259.600,344.336 259.420,344.200 259.200 C 344.064 258.980,344.243 258.800,344.598 258.800 C 344.953 258.800,345.819 258.261,346.522 257.602 C 347.225 256.943,347.938 256.403,348.108 256.402 C 348.660 256.399,353.503 251.701,358.700 246.129 C 359.195 245.598,359.600 245.019,359.600 244.841 C 359.600 244.664,360.140 243.954,360.800 243.263 C 361.460 242.572,362.000 241.725,362.000 241.380 C 362.000 241.035,362.164 240.854,362.365 240.979 C 362.566 241.103,362.970 240.664,363.263 240.002 C 363.556 239.341,363.931 238.800,364.098 238.800 C 364.264 238.800,364.400 238.568,364.400 238.285 C 364.400 238.002,364.933 237.147,365.584 236.385 C 366.235 235.623,366.775 234.685,366.784 234.300 C 366.793 233.915,366.944 233.600,367.120 233.600 C 367.295 233.600,367.667 232.970,367.946 232.200 C 368.224 231.430,368.620 230.800,368.826 230.800 C 369.032 230.800,369.200 230.564,369.200 230.275 C 369.200 229.986,369.560 229.005,370.000 228.094 C 370.440 227.184,370.800 226.171,370.800 225.843 C 370.800 225.515,370.946 225.157,371.125 225.046 C 371.303 224.936,371.866 223.530,372.374 221.923 C 372.882 220.315,373.393 218.730,373.510 218.400 C 373.837 217.471,373.917 217.118,374.193 215.400 C 374.334 214.520,374.618 213.170,374.823 212.400 C 375.028 211.630,375.197 210.156,375.198 209.124 C 375.199 208.092,375.380 207.136,375.600 207.000 C 375.848 206.847,376.000 203.188,376.000 197.353 C 376.000 191.188,375.862 188.038,375.600 188.200 C 375.350 188.354,375.200 187.545,375.200 186.047 C 375.200 184.727,375.020 183.536,374.800 183.400 C 374.580 183.264,374.400 182.973,374.400 182.753 C 374.400 182.533,374.579 182.464,374.799 182.599 C 375.056 182.758,375.075 182.518,374.853 181.923 C 374.480 180.921,373.820 177.186,373.932 176.700 C 373.969 176.535,373.809 176.400,373.576 176.400 C 373.343 176.400,373.264 176.220,373.400 176.000 C 373.536 175.780,373.592 175.621,373.524 175.646 C 373.456 175.672,373.130 175.767,372.800 175.859 " stroke="none" fill="#dcd4cc" fill-rule="evenodd"></path><path id="path1" d="M184.000 38.400 C 184.000 38.633,182.675 38.800,180.824 38.800 C 179.077 38.800,177.536 38.980,177.400 39.200 C 177.264 39.420,176.274 39.600,175.200 39.600 C 174.126 39.600,173.136 39.780,173.000 40.000 C 172.864 40.220,171.874 40.400,170.800 40.400 C 169.726 40.400,168.736 40.580,168.600 40.800 C 168.464 41.020,167.804 41.200,167.134 41.200 C 165.311 41.200,156.563 43.481,154.705 44.441 C 154.323 44.638,153.738 44.800,153.405 44.800 C 153.072 44.800,152.800 44.980,152.800 45.200 C 152.800 45.420,152.361 45.600,151.824 45.600 C 151.287 45.600,150.736 45.780,150.600 46.000 C 150.464 46.220,150.003 46.400,149.576 46.400 C 149.149 46.400,148.800 46.580,148.800 46.800 C 148.800 47.020,148.249 47.200,147.576 47.200 C 146.863 47.200,146.456 47.367,146.600 47.600 C 146.740 47.827,146.404 48.000,145.824 48.000 C 145.261 48.000,144.800 48.180,144.800 48.400 C 144.800 48.620,144.440 48.800,144.000 48.800 C 143.560 48.800,143.200 48.980,143.200 49.200 C 143.200 49.420,142.930 49.600,142.600 49.600 C 142.270 49.600,142.000 49.780,142.000 50.000 C 142.000 50.220,141.640 50.400,141.200 50.400 C 140.760 50.400,140.400 50.580,140.400 50.800 C 140.400 51.020,140.040 51.200,139.600 51.200 C 139.160 51.200,138.800 51.380,138.800 51.600 C 138.800 51.820,138.440 52.000,138.000 52.000 C 137.560 52.000,137.200 52.180,137.200 52.400 C 137.200 52.620,136.840 52.800,136.400 52.800 C 135.960 52.800,135.600 52.980,135.600 53.200 C 135.600 53.420,135.364 53.600,135.075 53.600 C 134.787 53.600,134.164 53.960,133.692 54.400 C 133.220 54.840,132.596 55.200,132.305 55.200 C 132.014 55.200,131.517 55.560,131.200 56.000 C 130.883 56.440,130.343 56.800,130.000 56.800 C 129.657 56.800,129.117 57.160,128.800 57.600 C 128.483 58.040,127.925 58.400,127.561 58.400 C 127.196 58.400,126.674 58.670,126.400 59.000 C 126.126 59.330,125.726 59.600,125.512 59.600 C 125.297 59.600,124.617 60.140,124.000 60.800 C 123.383 61.460,122.681 62.000,122.440 62.000 C 122.198 62.000,121.259 62.720,120.352 63.600 C 119.445 64.480,118.537 65.200,118.333 65.200 C 117.838 65.200,103.600 79.573,103.600 80.073 C 103.600 80.287,102.880 81.154,102.000 82.000 C 101.120 82.846,100.400 83.733,100.400 83.972 C 100.400 84.212,99.860 84.972,99.200 85.663 C 98.540 86.354,98.000 87.122,98.000 87.371 C 98.000 87.620,97.640 88.083,97.200 88.400 C 96.760 88.717,96.400 89.257,96.400 89.600 C 96.400 89.943,96.040 90.483,95.600 90.800 C 95.160 91.117,94.800 91.697,94.800 92.088 C 94.800 92.480,94.650 92.800,94.468 92.800 C 94.285 92.800,93.880 93.295,93.568 93.900 C 93.256 94.505,92.906 95.090,92.790 95.200 C 92.673 95.310,92.241 96.165,91.828 97.100 C 91.416 98.035,90.926 98.800,90.739 98.800 C 90.553 98.800,90.400 99.160,90.400 99.600 C 90.400 100.040,90.220 100.400,90.000 100.400 C 89.780 100.400,89.600 100.760,89.600 101.200 C 89.600 101.640,89.420 102.000,89.200 102.000 C 88.980 102.000,88.800 102.234,88.800 102.520 C 88.800 103.256,87.859 105.193,87.500 105.197 C 87.335 105.199,87.200 105.560,87.200 106.000 C 87.200 106.440,87.020 106.800,86.800 106.800 C 86.580 106.800,86.400 107.250,86.400 107.800 C 86.400 108.350,86.220 108.800,86.000 108.800 C 85.780 108.800,85.600 109.160,85.600 109.600 C 85.600 110.040,85.420 110.400,85.200 110.400 C 84.980 110.400,84.800 110.940,84.800 111.600 C 84.800 112.260,84.620 112.800,84.400 112.800 C 84.180 112.800,84.000 113.160,84.000 113.600 C 84.000 114.040,83.820 114.400,83.600 114.400 C 83.380 114.400,83.200 114.940,83.200 115.600 C 83.200 116.260,83.020 116.800,82.800 116.800 C 82.580 116.800,82.400 117.430,82.400 118.200 C 82.400 118.970,82.220 119.600,82.000 119.600 C 81.780 119.600,81.600 120.050,81.600 120.600 C 81.600 121.556,81.493 121.600,79.200 121.600 C 77.867 121.600,76.800 121.778,76.800 122.000 C 76.800 122.220,75.810 122.400,74.600 122.400 C 73.390 122.400,72.400 122.580,72.400 122.800 C 72.400 123.020,71.500 123.200,70.400 123.200 C 69.300 123.200,68.400 123.380,68.400 123.600 C 68.400 123.820,67.860 124.000,67.200 124.000 C 66.540 124.000,66.000 124.180,66.000 124.400 C 66.000 124.620,65.556 124.800,65.014 124.800 C 63.966 124.800,60.664 125.767,59.505 126.413 C 59.123 126.626,58.538 126.800,58.205 126.800 C 57.872 126.800,57.600 126.980,57.600 127.200 C 57.600 127.420,57.240 127.600,56.800 127.600 C 56.360 127.600,56.000 127.758,56.000 127.950 C 56.000 128.143,55.505 128.399,54.900 128.520 C 54.295 128.641,53.117 129.204,52.282 129.770 C 51.447 130.337,50.502 130.800,50.182 130.800 C 49.862 130.800,49.600 130.980,49.600 131.200 C 49.600 131.420,49.280 131.600,48.888 131.600 C 48.497 131.600,47.917 131.960,47.600 132.400 C 47.283 132.840,46.673 133.200,46.245 133.200 C 45.817 133.200,45.584 133.317,45.727 133.460 C 46.063 133.796,44.786 134.771,43.988 134.787 C 43.652 134.794,43.117 135.160,42.800 135.600 C 42.483 136.040,42.071 136.400,41.886 136.400 C 41.700 136.400,40.671 137.300,39.600 138.400 C 38.529 139.500,37.442 140.400,37.184 140.400 C 36.927 140.400,35.463 141.705,33.931 143.300 C 29.670 147.737,28.343 149.200,28.582 149.200 C 28.702 149.200,28.485 149.533,28.100 149.940 C 26.722 151.396,26.077 152.372,24.229 155.796 C 23.993 156.233,23.488 156.882,23.107 157.236 C 22.726 157.591,22.506 157.972,22.617 158.084 C 22.728 158.195,22.545 158.514,22.210 158.792 C 21.874 159.070,21.600 159.546,21.600 159.849 C 21.600 160.152,21.420 160.400,21.200 160.400 C 20.980 160.400,20.800 160.760,20.800 161.200 C 20.800 161.640,20.620 162.000,20.400 162.000 C 20.180 162.000,20.000 162.253,20.000 162.562 C 20.000 163.247,18.355 166.486,17.800 166.894 C 17.580 167.056,17.556 167.191,17.746 167.194 C 17.936 167.197,17.801 167.644,17.446 168.186 C 17.091 168.728,16.800 169.538,16.800 169.986 C 16.800 170.434,16.620 170.800,16.400 170.800 C 16.180 170.800,16.000 171.340,16.000 172.000 C 16.000 172.660,15.820 173.200,15.600 173.200 C 15.380 173.200,15.200 173.740,15.200 174.400 C 15.200 175.060,15.059 175.600,14.886 175.600 C 14.713 175.600,14.571 175.972,14.571 176.427 C 14.571 177.175,14.618 177.190,15.059 176.587 C 15.581 175.873,16.400 176.107,16.400 176.970 C 16.400 177.464,17.360 180.070,18.696 183.200 C 27.585 204.032,45.893 220.161,67.400 226.106 C 74.771 228.144,79.788 228.802,87.833 228.787 C 105.088 228.755,119.900 223.785,133.972 213.306 C 134.512 212.903,134.890 212.956,136.017 213.592 C 171.922 233.857,216.606 233.975,251.636 213.898 L 253.473 212.845 257.914 215.813 C 292.866 239.168,338.626 230.549,362.545 196.104 C 363.345 194.951,364.000 193.904,364.000 193.776 C 364.000 193.649,364.509 192.792,365.132 191.872 C 366.143 190.379,368.408 185.882,370.103 182.000 C 370.440 181.230,371.049 179.559,371.457 178.287 C 372.142 176.154,372.278 175.991,373.200 176.199 C 373.800 176.334,374.001 176.291,373.702 176.090 C 373.428 175.906,373.166 175.225,373.119 174.578 C 373.072 173.930,372.874 173.289,372.678 173.152 C 372.482 173.016,372.294 172.431,372.261 171.853 C 372.227 171.274,372.098 170.800,371.972 170.800 C 371.847 170.800,371.500 169.900,371.200 168.800 C 370.900 167.700,370.508 166.800,370.328 166.800 C 370.147 166.800,370.000 166.440,370.000 166.000 C 370.000 165.560,369.820 165.200,369.600 165.200 C 369.380 165.200,369.200 164.840,369.200 164.400 C 369.200 163.960,369.020 163.600,368.800 163.600 C 368.580 163.600,368.400 163.345,368.400 163.033 C 368.400 162.722,368.212 162.404,367.982 162.327 C 367.752 162.251,367.535 161.798,367.499 161.322 C 367.463 160.845,367.291 160.544,367.117 160.651 C 366.943 160.759,366.800 160.477,366.800 160.024 C 366.800 159.571,366.620 159.200,366.400 159.200 C 366.180 159.200,366.000 158.917,366.000 158.571 C 366.000 157.778,365.220 156.987,364.082 156.626 C 363.598 156.472,362.628 155.504,361.927 154.473 C 361.226 153.443,360.551 152.510,360.426 152.400 C 360.302 152.290,359.577 151.390,358.816 150.400 C 355.887 146.592,350.502 141.239,346.800 138.457 C 346.030 137.878,345.310 137.292,345.200 137.153 C 344.236 135.943,332.805 129.487,328.800 127.891 C 328.250 127.672,327.350 127.316,326.800 127.100 C 326.250 126.884,325.487 126.548,325.105 126.353 C 324.723 126.159,324.059 126.000,323.629 126.000 C 323.199 126.000,322.736 125.820,322.600 125.600 C 322.464 125.380,321.834 125.200,321.200 125.200 C 320.566 125.200,319.948 125.040,319.827 124.844 C 319.706 124.649,319.021 124.386,318.304 124.261 C 317.587 124.136,316.010 123.841,314.800 123.606 C 313.590 123.372,311.211 123.047,309.513 122.885 C 306.342 122.581,305.244 121.935,305.213 120.353 C 305.206 119.998,304.856 118.828,304.435 117.753 C 304.015 116.679,303.043 114.180,302.275 112.200 C 299.950 106.202,295.820 98.008,293.211 94.216 C 292.545 93.248,292.000 92.263,292.000 92.028 C 292.000 91.793,291.850 91.600,291.668 91.600 C 291.485 91.600,291.080 91.105,290.768 90.500 C 290.456 89.895,290.102 89.310,289.981 89.200 C 289.860 89.090,289.330 88.370,288.802 87.600 C 273.861 65.802,247.963 48.381,221.200 42.128 C 217.686 41.307,215.200 40.412,215.200 39.967 C 215.200 39.765,214.300 39.600,213.200 39.600 C 212.100 39.600,211.200 39.420,211.200 39.200 C 211.200 38.965,209.808 38.800,207.824 38.800 C 205.967 38.800,204.336 38.620,204.200 38.400 C 204.046 38.151,200.196 38.000,193.976 38.000 C 187.592 38.000,184.000 38.144,184.000 38.400 M13.030 182.267 C 12.889 182.634,12.960 183.120,13.187 183.347 C 13.471 183.631,13.600 183.423,13.600 182.680 C 13.600 181.446,13.400 181.301,13.030 182.267 M25.843 241.769 C 25.964 242.082,26.315 242.435,26.625 242.554 C 27.089 242.732,27.102 242.632,26.698 241.985 C 26.132 241.080,25.519 240.925,25.843 241.769 M39.600 256.200 C 39.600 256.530,39.780 256.800,40.000 256.800 C 40.220 256.800,40.400 256.530,40.400 256.200 C 40.400 255.870,40.220 255.600,40.000 255.600 C 39.780 255.600,39.600 255.870,39.600 256.200 M69.400 271.200 C 69.536 271.420,70.042 271.587,70.524 271.572 C 71.369 271.545,71.371 271.531,70.600 271.200 C 69.499 270.727,69.108 270.727,69.400 271.200 M96.215 272.824 C 96.496 273.279,97.600 273.327,97.600 272.885 C 97.600 272.712,97.236 272.543,96.791 272.509 C 96.347 272.476,96.087 272.618,96.215 272.824 M204.400 272.800 C 203.460 273.101,203.479 273.123,204.724 273.160 C 205.513 273.184,205.947 273.038,205.800 272.800 C 205.664 272.580,205.518 272.418,205.476 272.440 C 205.434 272.462,204.950 272.624,204.400 272.800 M290.720 272.880 C 291.093 273.253,291.307 273.253,291.680 272.880 C 292.053 272.507,291.947 272.400,291.200 272.400 C 290.453 272.400,290.347 272.507,290.720 272.880 " stroke="none" fill="#f3ebe3" fill-rule="evenodd"></path><path id="path2" d="M78.623 279.562 C 78.474 279.803,77.654 280.000,76.800 280.000 C 75.946 280.000,75.136 280.180,75.000 280.400 C 74.864 280.620,74.403 280.800,73.976 280.800 C 73.549 280.800,73.200 280.980,73.200 281.200 C 73.200 281.420,72.840 281.600,72.400 281.600 C 71.960 281.600,71.600 281.750,71.600 281.932 C 71.600 282.115,71.105 282.520,70.500 282.832 C 69.057 283.577,68.400 284.219,68.400 284.883 C 68.400 285.180,68.040 285.683,67.600 286.000 C 67.160 286.317,66.800 286.807,66.800 287.088 C 66.800 287.370,66.620 287.600,66.400 287.600 C 66.180 287.600,66.000 287.870,66.000 288.200 C 66.000 288.530,65.809 288.800,65.576 288.800 C 65.343 288.800,65.255 288.965,65.380 289.168 C 65.505 289.370,65.336 289.807,65.004 290.139 C 64.672 290.471,64.400 290.943,64.400 291.188 C 64.400 291.433,64.040 292.020,63.600 292.492 C 63.160 292.964,62.576 293.856,62.303 294.475 C 62.029 295.094,61.669 295.600,61.502 295.600 C 61.336 295.600,61.200 295.945,61.200 296.367 C 61.200 296.788,61.065 297.193,60.900 297.267 C 60.426 297.478,58.712 300.799,59.074 300.806 C 59.253 300.809,59.135 300.980,58.812 301.184 C 58.488 301.389,58.357 301.690,58.521 301.854 C 58.684 302.018,59.092 301.761,59.426 301.284 C 59.761 300.807,61.151 299.637,62.517 298.685 C 74.228 290.521,88.855 299.731,86.222 313.612 C 85.488 317.480,85.481 317.600,86.000 317.600 C 86.220 317.600,86.400 317.268,86.400 316.862 C 86.400 316.456,86.760 315.798,87.200 315.400 C 87.640 315.002,88.000 314.434,88.000 314.138 C 88.000 313.842,88.180 313.600,88.400 313.600 C 88.620 313.600,88.800 313.240,88.800 312.800 C 88.800 312.360,88.980 312.000,89.200 312.000 C 89.420 312.000,89.600 311.640,89.600 311.200 C 89.600 310.760,89.753 310.400,89.940 310.400 C 90.127 310.400,90.613 309.590,91.022 308.600 C 91.430 307.610,91.907 306.800,92.082 306.800 C 92.257 306.800,92.400 306.564,92.400 306.275 C 92.400 305.987,92.760 305.364,93.200 304.892 C 93.640 304.420,94.000 303.756,94.000 303.417 C 94.000 303.078,94.136 302.800,94.303 302.800 C 94.781 302.800,95.600 299.773,95.600 298.006 C 95.600 297.123,95.769 296.400,95.975 296.400 C 96.181 296.400,96.323 296.040,96.290 295.600 C 96.257 295.160,96.088 294.800,95.915 294.800 C 95.742 294.800,95.600 293.810,95.600 292.600 C 95.600 291.390,95.420 290.400,95.200 290.400 C 94.980 290.400,94.800 289.860,94.800 289.200 C 94.800 288.540,94.620 288.000,94.400 288.000 C 94.180 288.000,94.000 287.753,94.000 287.451 C 94.000 286.691,89.245 281.888,87.900 281.290 C 85.523 280.232,84.943 280.041,83.400 279.809 C 82.520 279.677,81.146 279.469,80.347 279.347 C 79.489 279.216,78.783 279.304,78.623 279.562 M161.360 279.665 C 161.246 279.849,160.454 280.000,159.600 280.000 C 158.746 280.000,157.936 280.180,157.800 280.400 C 157.664 280.620,157.203 280.800,156.776 280.800 C 156.349 280.800,156.000 280.980,156.000 281.200 C 156.000 281.420,155.727 281.600,155.393 281.600 C 154.601 281.600,149.600 286.601,149.600 287.393 C 149.600 287.727,149.420 288.000,149.200 288.000 C 148.980 288.000,148.800 288.360,148.800 288.800 C 148.800 289.240,148.620 289.600,148.400 289.600 C 148.180 289.600,148.000 289.870,148.000 290.200 C 148.000 290.530,147.820 290.800,147.600 290.800 C 147.380 290.800,147.200 291.070,147.200 291.400 C 147.200 291.730,147.009 292.000,146.776 292.000 C 146.543 292.000,146.455 292.165,146.580 292.368 C 146.705 292.570,146.536 293.007,146.204 293.339 C 145.872 293.671,145.600 294.136,145.600 294.371 C 145.600 294.607,145.441 294.800,145.247 294.800 C 145.052 294.800,144.790 295.115,144.664 295.500 C 144.538 295.885,144.002 296.926,143.472 297.814 C 141.334 301.396,141.664 302.023,144.400 299.581 C 155.657 289.531,173.005 300.058,169.120 314.581 C 168.699 316.159,169.019 317.814,169.490 316.493 C 169.590 316.214,169.925 315.732,170.236 315.421 C 170.546 315.111,170.800 314.657,170.800 314.412 C 170.800 314.167,171.160 313.580,171.600 313.108 C 172.040 312.636,172.400 312.013,172.400 311.725 C 172.400 311.436,172.580 311.200,172.800 311.200 C 173.020 311.200,173.200 310.920,173.200 310.579 C 173.200 310.237,173.650 309.295,174.200 308.486 C 174.750 307.677,175.200 306.786,175.200 306.507 C 175.200 306.228,175.380 306.000,175.600 306.000 C 175.820 306.000,176.000 305.640,176.000 305.200 C 176.000 304.760,176.180 304.400,176.400 304.400 C 176.620 304.400,176.800 304.130,176.800 303.800 C 176.800 303.470,176.980 303.200,177.200 303.200 C 177.420 303.200,177.600 302.750,177.600 302.200 C 177.600 301.650,177.780 301.200,178.000 301.200 C 178.220 301.200,178.400 300.660,178.400 300.000 C 178.400 299.340,178.580 298.800,178.800 298.800 C 179.035 298.800,179.200 297.400,179.200 295.400 C 179.200 293.400,179.035 292.000,178.800 292.000 C 178.580 292.000,178.400 291.460,178.400 290.800 C 178.400 290.140,178.220 289.600,178.000 289.600 C 177.780 289.600,177.600 289.240,177.600 288.800 C 177.600 288.360,177.420 288.000,177.200 288.000 C 176.980 288.000,176.800 287.680,176.800 287.288 C 176.800 286.897,176.440 286.317,176.000 286.000 C 175.560 285.683,175.200 285.180,175.200 284.883 C 175.200 284.239,174.232 283.200,173.632 283.200 C 173.398 283.200,172.982 282.840,172.707 282.400 C 172.432 281.960,171.986 281.600,171.716 281.600 C 171.446 281.600,170.583 281.240,169.800 280.800 C 169.017 280.360,167.661 280.000,166.788 280.000 C 165.915 280.000,165.200 279.819,165.200 279.597 C 165.200 279.118,161.659 279.181,161.360 279.665 M327.409 279.586 C 327.268 279.814,326.443 280.000,325.576 280.000 C 324.709 280.000,324.000 280.180,324.000 280.400 C 324.000 280.620,323.640 280.800,323.200 280.800 C 322.760 280.800,322.400 280.980,322.400 281.200 C 322.400 281.420,322.040 281.600,321.600 281.600 C 321.160 281.600,320.800 281.780,320.800 282.000 C 320.800 282.220,320.535 282.400,320.212 282.400 C 319.889 282.400,319.225 282.940,318.737 283.600 C 318.249 284.260,317.603 284.800,317.301 284.800 C 317.000 284.800,316.857 284.968,316.984 285.174 C 317.111 285.380,316.762 286.002,316.208 286.556 C 315.653 287.110,315.200 287.842,315.200 288.182 C 315.200 288.522,315.020 288.800,314.800 288.800 C 314.580 288.800,314.400 289.160,314.400 289.600 C 314.400 290.040,314.242 290.400,314.049 290.400 C 313.855 290.400,313.473 290.940,313.200 291.600 C 312.927 292.260,312.589 292.800,312.449 292.800 C 312.310 292.800,311.941 293.385,311.630 294.100 C 311.319 294.815,310.949 295.490,310.808 295.600 C 310.668 295.710,309.873 297.149,309.043 298.797 C 308.213 300.445,307.329 301.920,307.079 302.075 C 306.828 302.230,306.742 302.475,306.887 302.620 C 307.032 302.765,307.733 302.220,308.446 301.409 C 316.055 292.742,329.627 294.202,334.388 304.200 C 335.424 306.376,335.724 311.231,335.086 315.500 C 334.880 316.882,334.914 317.600,335.186 317.600 C 335.414 317.600,335.600 317.240,335.600 316.800 C 335.600 316.360,335.780 316.000,336.000 316.000 C 336.220 316.000,336.400 315.680,336.400 315.288 C 336.400 314.897,336.760 314.317,337.200 314.000 C 337.640 313.683,338.000 313.191,338.000 312.906 C 338.000 312.407,338.774 310.810,339.215 310.400 C 339.333 310.290,339.963 309.128,340.615 307.817 C 341.267 306.506,342.115 305.077,342.500 304.641 C 342.885 304.206,343.200 303.613,343.200 303.325 C 343.200 303.036,343.380 302.800,343.600 302.800 C 343.820 302.800,344.000 302.260,344.000 301.600 C 344.000 300.940,344.180 300.400,344.400 300.400 C 344.645 300.400,344.800 298.467,344.800 295.400 C 344.800 292.333,344.645 290.400,344.400 290.400 C 344.180 290.400,344.000 289.860,344.000 289.200 C 344.000 288.540,343.850 288.000,343.668 288.000 C 343.485 288.000,343.080 287.505,342.768 286.900 C 342.455 286.295,341.840 285.420,341.400 284.955 C 340.960 284.491,340.353 283.751,340.052 283.311 C 339.750 282.871,338.895 282.273,338.152 281.981 C 337.408 281.689,336.800 281.304,336.800 281.125 C 336.800 280.946,336.476 280.800,336.080 280.800 C 335.684 280.800,335.189 280.630,334.980 280.422 C 334.771 280.215,333.745 280.001,332.700 279.948 C 331.655 279.894,330.800 279.739,330.800 279.603 C 330.800 279.170,327.676 279.154,327.409 279.586 M42.900 328.127 C 42.405 328.855,42.000 329.753,42.000 330.125 C 42.000 330.496,41.820 330.800,41.600 330.800 C 41.380 330.800,41.200 331.120,41.200 331.512 C 41.200 331.903,40.840 332.483,40.400 332.800 C 39.960 333.117,39.600 333.697,39.600 334.088 C 39.600 334.480,39.420 334.800,39.200 334.800 C 38.980 334.800,38.800 335.078,38.800 335.417 C 38.800 335.756,38.440 336.420,38.000 336.892 C 37.560 337.364,37.200 337.987,37.200 338.275 C 37.200 338.564,37.020 338.800,36.800 338.800 C 36.580 338.800,36.400 339.160,36.400 339.600 C 36.400 340.040,36.220 340.400,36.000 340.400 C 35.780 340.400,35.600 340.678,35.600 341.017 C 35.600 341.356,35.248 342.011,34.817 342.474 C 33.917 343.440,32.400 346.514,32.400 347.372 C 32.400 347.691,32.220 348.064,32.000 348.200 C 31.041 348.793,31.645 356.110,32.849 358.495 C 33.042 358.877,33.200 359.462,33.200 359.795 C 33.200 360.128,33.350 360.400,33.532 360.400 C 33.715 360.400,34.120 360.888,34.432 361.485 C 35.096 362.753,37.574 365.200,38.195 365.200 C 38.431 365.200,38.883 365.560,39.200 366.000 C 39.539 366.470,40.235 366.800,40.888 366.800 C 41.500 366.800,42.000 366.980,42.000 367.200 C 42.000 367.420,42.630 367.600,43.400 367.600 C 44.170 367.600,44.800 367.780,44.800 368.000 C 44.800 368.226,45.933 368.400,47.400 368.400 C 48.867 368.400,50.000 368.226,50.000 368.000 C 50.000 367.780,50.619 367.600,51.376 367.600 C 52.133 367.600,52.864 367.420,53.000 367.200 C 53.136 366.980,53.687 366.800,54.224 366.800 C 54.761 366.800,55.200 366.620,55.200 366.400 C 55.200 366.180,55.394 366.000,55.631 366.000 C 56.255 366.000,61.200 360.809,61.200 360.154 C 61.200 359.849,61.380 359.600,61.600 359.600 C 61.820 359.600,62.000 359.240,62.000 358.800 C 62.000 358.360,62.180 358.000,62.400 358.000 C 62.620 358.000,62.800 357.732,62.800 357.405 C 62.800 356.857,63.430 355.922,64.700 354.584 C 64.975 354.294,65.200 353.774,65.200 353.429 C 65.200 353.083,65.380 352.800,65.600 352.800 C 65.820 352.800,66.000 352.564,66.000 352.275 C 66.000 351.987,66.360 351.364,66.800 350.892 C 67.240 350.420,67.600 349.756,67.600 349.417 C 67.600 349.078,67.780 348.800,68.000 348.800 C 68.220 348.800,68.400 348.440,68.400 348.000 C 68.400 347.560,68.558 347.200,68.751 347.200 C 68.945 347.200,69.327 346.660,69.600 346.000 C 69.873 345.340,70.255 344.800,70.449 344.800 C 70.642 344.800,70.800 344.518,70.800 344.173 C 70.800 343.598,68.803 344.621,68.000 345.607 C 62.057 352.908,47.165 349.651,43.665 340.285 C 42.757 337.855,42.399 330.599,43.147 329.780 C 43.456 329.442,44.116 326.796,43.890 326.803 C 43.841 326.804,43.395 327.400,42.900 328.127 M292.000 328.400 C 292.000 328.840,291.820 329.200,291.600 329.200 C 291.380 329.200,291.200 329.560,291.200 330.000 C 291.200 330.440,291.042 330.800,290.849 330.800 C 290.655 330.800,290.273 331.340,290.000 332.000 C 289.727 332.660,289.345 333.200,289.151 333.200 C 288.958 333.200,288.800 333.560,288.800 334.000 C 288.800 334.440,288.620 334.800,288.400 334.800 C 288.180 334.800,288.000 335.120,288.000 335.512 C 288.000 335.903,287.640 336.483,287.200 336.800 C 286.760 337.117,286.400 337.697,286.400 338.088 C 286.400 338.480,286.220 338.800,286.000 338.800 C 285.780 338.800,285.600 339.160,285.600 339.600 C 285.600 340.040,285.464 340.400,285.298 340.400 C 285.131 340.400,284.771 340.906,284.497 341.525 C 284.224 342.144,283.640 343.036,283.200 343.508 C 282.760 343.980,282.400 344.644,282.400 344.983 C 282.400 345.322,282.220 345.600,282.000 345.600 C 281.780 345.600,281.600 346.140,281.600 346.800 C 281.600 347.460,281.420 348.000,281.200 348.000 C 280.959 348.000,280.800 349.659,280.800 352.176 C 280.800 354.529,280.975 356.461,281.200 356.600 C 281.420 356.736,281.600 357.287,281.600 357.824 C 281.600 358.361,281.780 358.800,282.000 358.800 C 282.220 358.800,282.400 359.160,282.400 359.600 C 282.400 360.040,282.580 360.400,282.800 360.400 C 283.020 360.400,283.200 360.675,283.200 361.011 C 283.200 361.755,286.573 365.200,287.301 365.200 C 287.588 365.200,288.083 365.560,288.400 366.000 C 288.717 366.440,289.376 366.800,289.865 366.800 C 290.353 366.800,290.864 366.980,291.000 367.200 C 291.136 367.420,291.766 367.600,292.400 367.600 C 293.034 367.600,293.664 367.780,293.800 368.000 C 293.936 368.220,295.196 368.400,296.600 368.400 C 298.004 368.400,299.264 368.220,299.400 368.000 C 299.536 367.780,300.256 367.600,301.000 367.600 C 301.744 367.600,302.464 367.420,302.600 367.200 C 302.736 366.980,303.197 366.800,303.624 366.800 C 304.051 366.800,304.400 366.620,304.400 366.400 C 304.400 366.180,304.670 366.000,305.000 366.000 C 305.330 366.000,305.600 365.820,305.600 365.600 C 305.600 365.380,305.830 365.200,306.112 365.200 C 306.393 365.200,306.888 364.815,307.212 364.345 C 307.535 363.874,308.205 363.073,308.700 362.563 C 309.195 362.053,309.600 361.424,309.600 361.165 C 309.600 360.906,309.915 360.403,310.300 360.047 C 310.685 359.691,311.058 359.130,311.130 358.800 C 311.201 358.470,311.426 358.140,311.630 358.067 C 311.833 357.993,312.000 357.678,312.000 357.367 C 312.000 357.055,312.146 356.800,312.325 356.800 C 312.504 356.800,312.898 356.170,313.200 355.400 C 313.502 354.630,313.896 354.000,314.075 354.000 C 314.254 354.000,314.400 353.730,314.400 353.400 C 314.400 353.070,314.580 352.800,314.800 352.800 C 315.020 352.800,315.200 352.440,315.200 352.000 C 315.200 351.560,315.365 351.200,315.567 351.200 C 315.769 351.200,316.342 350.300,316.839 349.200 C 317.336 348.100,317.891 347.200,318.071 347.200 C 318.252 347.200,318.400 346.840,318.400 346.400 C 318.400 345.960,318.550 345.600,318.732 345.600 C 318.915 345.600,319.320 345.105,319.632 344.500 C 319.944 343.895,320.374 343.275,320.588 343.122 C 320.802 342.969,320.850 342.716,320.694 342.561 C 320.538 342.405,320.046 342.742,319.600 343.309 C 311.166 354.031,294.476 350.368,292.007 337.253 C 291.575 334.955,291.890 329.600,292.457 329.600 C 292.646 329.600,292.800 329.150,292.800 328.600 C 292.800 328.050,292.620 327.600,292.400 327.600 C 292.180 327.600,292.000 327.960,292.000 328.400 M125.153 329.779 C 124.879 330.537,124.507 331.066,124.327 330.955 C 124.147 330.844,124.000 331.123,124.000 331.576 C 124.000 332.029,123.820 332.400,123.600 332.400 C 123.380 332.400,123.200 332.760,123.200 333.200 C 123.200 333.640,123.020 334.000,122.800 334.000 C 122.580 334.000,122.400 334.278,122.400 334.617 C 122.400 334.956,122.040 335.620,121.600 336.092 C 121.160 336.564,120.800 337.187,120.800 337.475 C 120.800 337.764,120.620 338.000,120.400 338.000 C 120.180 338.000,120.000 338.278,120.000 338.617 C 120.000 338.956,119.640 339.620,119.200 340.092 C 118.760 340.564,118.400 341.187,118.400 341.475 C 118.400 341.764,118.220 342.000,118.000 342.000 C 117.780 342.000,117.600 342.360,117.600 342.800 C 117.600 343.240,117.454 343.600,117.275 343.600 C 117.096 343.600,116.702 344.230,116.400 345.000 C 116.098 345.770,115.704 346.400,115.525 346.400 C 115.346 346.400,115.200 347.120,115.200 348.000 C 115.200 348.884,115.006 349.600,114.766 349.600 C 114.477 349.600,114.403 350.439,114.544 352.100 C 114.872 355.968,115.250 358.000,115.642 358.000 C 115.839 358.000,116.000 358.360,116.000 358.800 C 116.000 359.240,116.180 359.600,116.400 359.600 C 116.620 359.600,116.800 359.878,116.800 360.218 C 116.800 360.558,117.253 361.290,117.808 361.844 C 118.362 362.398,118.694 363.048,118.546 363.288 C 118.398 363.527,118.455 363.613,118.673 363.479 C 118.891 363.344,119.729 363.856,120.535 364.617 C 121.342 365.378,122.271 366.000,122.601 366.000 C 122.930 366.000,123.200 366.180,123.200 366.400 C 123.200 366.620,123.560 366.800,124.000 366.800 C 124.440 366.800,124.800 366.980,124.800 367.200 C 124.800 367.420,125.520 367.600,126.400 367.600 C 127.280 367.600,128.000 367.780,128.000 368.000 C 128.000 368.226,129.133 368.400,130.600 368.400 C 132.067 368.400,133.200 368.226,133.200 368.000 C 133.200 367.780,133.920 367.600,134.800 367.600 C 135.680 367.600,136.400 367.420,136.400 367.200 C 136.400 366.980,136.760 366.800,137.200 366.800 C 137.640 366.800,138.000 366.620,138.000 366.400 C 138.000 366.180,138.317 366.000,138.704 366.000 C 139.091 366.000,139.632 365.640,139.907 365.200 C 140.182 364.760,140.598 364.400,140.832 364.400 C 141.432 364.400,142.400 363.361,142.400 362.717 C 142.400 362.420,142.760 361.917,143.200 361.600 C 143.640 361.283,144.000 360.795,144.000 360.516 C 144.000 360.237,144.315 359.642,144.700 359.193 C 145.556 358.195,147.551 354.858,147.864 353.900 C 147.990 353.515,148.252 353.200,148.447 353.200 C 148.641 353.200,148.800 352.930,148.800 352.600 C 148.800 352.270,148.980 352.000,149.200 352.000 C 149.420 352.000,149.600 351.640,149.600 351.200 C 149.600 350.760,149.780 350.400,150.000 350.400 C 150.220 350.400,150.400 350.080,150.400 349.688 C 150.400 349.297,150.760 348.717,151.200 348.400 C 151.640 348.083,152.000 347.503,152.000 347.112 C 152.000 346.720,152.180 346.400,152.400 346.400 C 152.620 346.400,152.800 346.097,152.800 345.726 C 152.800 345.355,153.191 344.635,153.670 344.126 C 155.180 342.518,153.834 343.124,151.775 344.979 C 140.379 355.244,122.933 346.540,125.919 332.079 C 126.704 328.282,126.220 326.829,125.153 329.779 M323.114 337.900 C 322.856 338.505,322.381 339.316,322.058 339.702 C 321.736 340.089,321.566 340.499,321.682 340.615 C 321.797 340.730,322.148 340.414,322.461 339.912 C 323.232 338.674,324.029 336.800,323.783 336.800 C 323.673 336.800,323.372 337.295,323.114 337.900 " stroke="none" fill="#76e4fc" fill-rule="evenodd"></path><path id="path3" d="M278.800 0.274 C 277.590 0.369,276.429 0.616,276.220 0.823 C 276.011 1.030,275.066 1.200,274.120 1.200 C 273.174 1.200,272.400 1.380,272.400 1.600 C 272.400 1.820,271.691 2.000,270.824 2.000 C 269.957 2.000,269.136 2.180,269.000 2.400 C 268.864 2.620,268.133 2.800,267.376 2.800 C 266.619 2.800,266.000 2.980,266.000 3.200 C 266.000 3.420,265.460 3.600,264.800 3.600 C 264.140 3.600,263.600 3.780,263.600 4.000 C 263.600 4.220,263.060 4.400,262.400 4.400 C 261.740 4.400,261.200 4.580,261.200 4.800 C 261.200 5.020,260.750 5.200,260.200 5.200 C 259.650 5.200,259.200 5.380,259.200 5.600 C 259.200 5.820,258.840 6.000,258.400 6.000 C 257.960 6.000,257.600 6.180,257.600 6.400 C 257.600 6.620,257.161 6.800,256.624 6.800 C 256.087 6.800,255.536 6.980,255.400 7.200 C 255.264 7.420,254.803 7.600,254.376 7.600 C 253.949 7.600,253.600 7.780,253.600 8.000 C 253.600 8.220,253.324 8.400,252.987 8.400 C 252.186 8.400,245.561 11.637,244.800 12.401 C 244.690 12.511,244.108 12.855,243.507 13.165 C 242.905 13.474,242.058 14.059,241.623 14.464 C 241.189 14.869,240.628 15.200,240.377 15.200 C 240.126 15.200,239.417 15.740,238.800 16.400 C 238.183 17.060,237.463 17.600,237.200 17.600 C 236.937 17.600,236.217 18.140,235.600 18.800 C 234.983 19.460,234.271 20.000,234.017 20.000 C 233.763 20.000,232.496 21.080,231.200 22.400 C 229.904 23.720,228.699 24.802,228.522 24.804 C 228.345 24.807,227.300 25.811,226.200 27.036 C 225.100 28.261,223.255 30.235,222.100 31.423 C 220.945 32.611,220.000 33.777,220.000 34.015 C 220.000 34.253,219.820 34.336,219.600 34.200 C 219.380 34.064,219.200 34.251,219.200 34.616 C 219.200 34.981,218.660 35.783,218.000 36.400 C 217.340 37.017,216.800 37.732,216.800 37.989 C 216.800 38.247,216.530 38.727,216.200 39.057 C 215.013 40.244,214.790 40.140,222.600 42.025 C 260.436 51.158,293.258 81.721,305.256 118.993 C 306.256 122.100,306.024 121.949,310.840 122.622 C 331.264 125.478,349.120 136.337,361.775 153.600 C 364.454 157.256,364.689 157.372,365.750 155.577 C 366.147 154.905,367.086 153.741,367.836 152.991 C 368.586 152.240,369.200 151.439,369.200 151.210 C 369.200 150.980,369.740 150.228,370.400 149.537 C 371.060 148.846,371.600 148.121,371.600 147.924 C 371.600 147.727,371.960 147.180,372.400 146.708 C 372.840 146.236,373.200 145.613,373.200 145.325 C 373.200 145.036,373.362 144.800,373.560 144.800 C 373.759 144.800,374.254 143.991,374.660 143.001 C 375.067 142.012,375.535 141.202,375.700 141.201 C 375.865 141.201,376.000 140.840,376.000 140.400 C 376.000 139.960,376.159 139.600,376.353 139.600 C 376.548 139.600,376.807 139.285,376.929 138.900 C 377.051 138.515,377.425 137.750,377.760 137.200 C 378.697 135.662,380.000 132.711,380.000 132.125 C 380.000 131.836,380.180 131.600,380.400 131.600 C 380.620 131.600,380.800 131.240,380.800 130.800 C 380.800 130.360,380.980 130.000,381.200 130.000 C 381.420 130.000,381.600 129.460,381.600 128.800 C 381.600 128.140,381.780 127.600,382.000 127.600 C 382.220 127.600,382.400 127.251,382.400 126.824 C 382.400 126.397,382.580 125.936,382.800 125.800 C 383.020 125.664,383.200 125.023,383.200 124.376 C 383.200 123.729,383.380 123.200,383.600 123.200 C 383.820 123.200,384.000 122.660,384.000 122.000 C 384.000 121.340,384.180 120.800,384.400 120.800 C 384.620 120.800,384.800 120.271,384.800 119.624 C 384.800 118.977,384.980 118.336,385.200 118.200 C 385.420 118.064,385.600 117.153,385.600 116.176 C 385.600 115.199,385.780 114.400,386.000 114.400 C 386.220 114.400,386.400 113.500,386.400 112.400 C 386.400 111.300,386.580 110.400,386.800 110.400 C 387.025 110.400,387.200 109.275,387.200 107.824 C 387.200 106.407,387.380 105.136,387.600 105.000 C 387.851 104.845,388.000 100.670,388.000 93.800 C 388.000 86.930,387.851 82.755,387.600 82.600 C 387.380 82.464,387.200 81.204,387.200 79.800 C 387.200 78.396,387.020 77.136,386.800 77.000 C 386.580 76.864,386.400 75.953,386.400 74.976 C 386.400 73.999,386.220 73.200,386.000 73.200 C 385.780 73.200,385.600 72.480,385.600 71.600 C 385.600 70.720,385.420 70.000,385.200 70.000 C 384.980 70.000,384.800 69.280,384.800 68.400 C 384.800 67.520,384.620 66.800,384.400 66.800 C 384.180 66.800,384.000 66.260,384.000 65.600 C 384.000 64.940,383.820 64.400,383.600 64.400 C 383.380 64.400,383.200 63.860,383.200 63.200 C 383.200 62.540,383.020 62.000,382.800 62.000 C 382.580 62.000,382.400 61.676,382.400 61.280 C 382.400 60.386,381.506 58.407,381.100 58.403 C 380.935 58.401,380.800 57.860,380.800 57.200 C 380.800 56.540,380.620 56.000,380.400 56.000 C 380.180 56.000,380.000 55.640,380.000 55.200 C 380.000 54.760,379.820 54.400,379.600 54.400 C 379.380 54.400,379.200 54.040,379.200 53.600 C 379.200 53.160,379.020 52.800,378.800 52.800 C 378.580 52.800,378.400 52.440,378.400 52.000 C 378.400 51.560,378.220 51.200,378.000 51.200 C 377.780 51.200,377.600 50.840,377.600 50.400 C 377.600 49.960,377.420 49.600,377.200 49.600 C 376.980 49.600,376.800 49.240,376.800 48.800 C 376.800 48.360,376.620 48.000,376.400 48.000 C 376.180 48.000,376.000 47.640,376.000 47.200 C 376.000 46.760,375.855 46.400,375.677 46.400 C 375.499 46.400,375.053 45.718,374.685 44.884 C 374.317 44.051,373.653 42.978,373.208 42.501 C 372.764 42.024,372.400 41.396,372.400 41.105 C 372.400 40.814,372.040 40.317,371.600 40.000 C 371.160 39.683,370.800 39.220,370.800 38.971 C 370.800 38.722,370.260 37.954,369.600 37.263 C 368.940 36.572,368.400 35.853,368.400 35.665 C 368.400 35.476,367.320 34.187,366.000 32.800 C 364.680 31.413,363.600 30.114,363.600 29.913 C 363.600 29.712,362.655 28.662,361.500 27.579 C 360.345 26.496,358.820 25.068,358.111 24.405 C 357.403 23.742,356.716 23.200,356.585 23.200 C 356.455 23.200,355.471 22.300,354.400 21.200 C 353.329 20.100,352.242 19.200,351.986 19.200 C 351.730 19.200,351.017 18.660,350.400 18.000 C 349.783 17.340,349.031 16.800,348.728 16.800 C 348.425 16.800,347.917 16.440,347.600 16.000 C 347.283 15.560,346.743 15.200,346.400 15.200 C 346.057 15.200,345.517 14.840,345.200 14.400 C 344.883 13.960,344.303 13.600,343.912 13.600 C 343.520 13.600,343.200 13.450,343.200 13.268 C 343.200 13.085,342.705 12.680,342.100 12.368 C 341.495 12.056,340.910 11.703,340.800 11.583 C 340.350 11.091,334.491 8.400,333.870 8.400 C 333.502 8.400,333.200 8.220,333.200 8.000 C 333.200 7.780,332.840 7.600,332.400 7.600 C 331.960 7.600,331.600 7.420,331.600 7.200 C 331.600 6.980,331.240 6.800,330.800 6.800 C 330.360 6.800,330.000 6.620,330.000 6.400 C 330.000 6.180,329.460 6.000,328.800 6.000 C 328.140 6.000,327.600 5.820,327.600 5.600 C 327.600 5.380,327.060 5.200,326.400 5.200 C 325.740 5.200,325.200 5.020,325.200 4.800 C 325.200 4.580,324.750 4.400,324.200 4.400 C 323.650 4.400,323.200 4.220,323.200 4.000 C 323.200 3.780,322.660 3.600,322.000 3.600 C 321.340 3.600,320.800 3.420,320.800 3.200 C 320.800 2.980,320.271 2.800,319.624 2.800 C 318.977 2.800,318.336 2.620,318.200 2.400 C 318.064 2.180,317.153 2.000,316.176 2.000 C 315.199 2.000,314.400 1.820,314.400 1.600 C 314.400 1.380,313.716 1.200,312.880 1.200 C 312.044 1.200,311.139 0.979,310.868 0.708 C 310.377 0.217,284.087 -0.138,278.800 0.274 M250.800 257.854 C 245.847 260.581,241.988 262.410,236.900 264.441 C 236.405 264.638,235.595 264.970,235.100 265.179 C 234.605 265.387,232.495 266.129,230.411 266.827 C 226.328 268.196,224.832 269.047,224.813 270.012 C 224.806 270.348,224.440 270.883,224.000 271.200 C 223.560 271.517,223.200 272.097,223.200 272.488 C 223.200 272.880,223.020 273.200,222.800 273.200 C 222.580 273.200,222.400 273.560,222.400 274.000 C 222.400 274.440,222.220 274.800,222.000 274.800 C 221.780 274.800,221.600 275.070,221.600 275.400 C 221.600 275.730,221.420 276.000,221.200 276.000 C 220.980 276.000,220.800 276.270,220.800 276.600 C 220.800 276.930,220.620 277.200,220.400 277.200 C 220.180 277.200,220.000 277.470,220.000 277.800 C 220.000 278.130,219.820 278.400,219.600 278.400 C 219.380 278.400,219.200 278.760,219.200 279.200 C 219.200 279.640,219.020 280.000,218.800 280.000 C 218.580 280.000,218.400 280.320,218.400 280.712 C 218.400 281.103,218.040 281.683,217.600 282.000 C 217.160 282.317,216.800 282.897,216.800 283.288 C 216.800 283.680,216.620 284.000,216.400 284.000 C 216.180 284.000,216.000 284.360,216.000 284.800 C 216.000 285.240,215.820 285.600,215.600 285.600 C 215.380 285.600,215.200 285.920,215.200 286.312 C 215.200 286.703,214.840 287.283,214.400 287.600 C 213.960 287.917,213.600 288.497,213.600 288.888 C 213.600 289.280,213.420 289.600,213.200 289.600 C 212.980 289.600,212.800 289.878,212.800 290.217 C 212.800 290.556,212.440 291.220,212.000 291.692 C 211.560 292.164,211.200 292.787,211.200 293.075 C 211.200 293.364,211.054 293.600,210.875 293.600 C 210.696 293.600,210.299 294.239,209.992 295.019 C 209.686 295.800,209.203 296.632,208.918 296.868 C 208.633 297.105,208.400 297.636,208.400 298.049 C 208.400 298.462,208.220 298.800,208.000 298.800 C 207.780 298.800,207.600 299.160,207.600 299.600 C 207.600 300.040,207.420 300.400,207.200 300.400 C 206.980 300.400,206.800 300.940,206.800 301.600 C 206.800 302.260,206.620 302.800,206.400 302.800 C 206.159 302.800,206.000 304.467,206.000 307.000 C 206.000 309.533,206.159 311.200,206.400 311.200 C 206.620 311.200,206.800 311.740,206.800 312.400 C 206.800 313.060,206.980 313.600,207.200 313.600 C 207.420 313.600,207.600 313.960,207.600 314.400 C 207.600 314.840,207.758 315.200,207.951 315.200 C 208.145 315.200,208.521 315.725,208.787 316.368 C 209.281 317.562,211.677 320.000,212.356 320.000 C 212.564 320.000,212.793 320.135,212.867 320.300 C 213.034 320.676,215.164 321.975,216.100 322.271 C 216.485 322.393,216.800 322.652,216.800 322.847 C 216.800 323.041,217.160 323.200,217.600 323.200 C 218.040 323.200,218.400 323.345,218.400 323.523 C 218.400 323.877,221.188 325.200,221.934 325.200 C 222.190 325.200,222.400 325.380,222.400 325.600 C 222.400 325.820,222.636 326.000,222.925 326.000 C 223.213 326.000,223.798 326.325,224.225 326.722 C 224.651 327.120,225.585 327.703,226.300 328.020 C 227.015 328.336,227.600 328.731,227.600 328.898 C 227.600 329.064,227.920 329.200,228.312 329.200 C 228.703 329.200,229.283 329.560,229.600 330.000 C 229.917 330.440,230.497 330.800,230.888 330.800 C 231.853 330.800,231.805 332.315,230.800 333.600 C 230.370 334.150,230.014 334.825,230.009 335.100 C 230.004 335.375,229.820 335.600,229.600 335.600 C 229.380 335.600,229.200 335.960,229.200 336.400 C 229.200 336.840,229.065 337.200,228.899 337.200 C 228.734 337.200,228.153 338.055,227.609 339.100 C 227.065 340.145,226.520 341.090,226.399 341.200 C 226.277 341.310,225.841 342.165,225.428 343.100 C 225.016 344.035,224.526 344.800,224.339 344.800 C 224.153 344.800,224.000 345.160,224.000 345.600 C 224.000 346.040,223.820 346.400,223.600 346.400 C 223.380 346.400,223.200 346.720,223.200 347.112 C 223.200 347.503,222.840 348.083,222.400 348.400 C 221.960 348.717,221.600 349.297,221.600 349.688 C 221.600 350.080,221.420 350.400,221.200 350.400 C 220.980 350.400,220.800 350.760,220.800 351.200 C 220.800 351.640,220.620 352.000,220.400 352.000 C 220.180 352.000,220.000 352.236,220.000 352.525 C 220.000 352.813,219.640 353.436,219.200 353.908 C 218.760 354.380,218.400 355.044,218.400 355.383 C 218.400 355.722,218.220 356.000,218.000 356.000 C 217.780 356.000,217.600 356.294,217.600 356.653 C 217.600 357.012,217.271 357.597,216.870 357.953 C 216.468 358.309,215.884 359.185,215.572 359.900 C 215.260 360.615,214.869 361.200,214.702 361.200 C 214.536 361.200,214.400 361.478,214.400 361.817 C 214.400 362.156,214.040 362.820,213.600 363.292 C 213.160 363.764,212.800 364.387,212.800 364.675 C 212.800 364.964,212.620 365.200,212.400 365.200 C 212.180 365.200,212.000 365.560,212.000 366.000 C 212.000 366.440,211.820 366.800,211.600 366.800 C 211.380 366.800,211.200 367.160,211.200 367.600 C 211.200 368.040,211.035 368.400,210.834 368.400 C 210.633 368.400,209.958 369.480,209.335 370.800 C 208.711 372.120,208.066 373.200,207.901 373.200 C 207.735 373.200,207.600 373.560,207.600 374.000 C 207.600 374.440,207.420 374.800,207.200 374.800 C 206.980 374.800,206.800 375.070,206.800 375.400 C 206.800 375.730,206.620 376.000,206.400 376.000 C 206.180 376.000,206.000 376.360,206.000 376.800 C 206.000 377.240,205.820 377.600,205.600 377.600 C 205.380 377.600,205.200 377.960,205.200 378.400 C 205.200 378.840,205.020 379.200,204.800 379.200 C 204.580 379.200,204.400 380.100,204.400 381.200 C 204.400 382.300,204.220 383.200,204.000 383.200 C 203.780 383.200,203.600 383.819,203.600 384.576 C 203.600 385.333,203.780 386.064,204.000 386.200 C 204.220 386.336,204.400 387.337,204.400 388.424 C 204.400 389.511,204.580 390.400,204.800 390.400 C 205.020 390.400,205.200 390.850,205.200 391.400 C 205.200 391.950,205.380 392.400,205.600 392.400 C 205.820 392.400,206.000 392.676,206.000 393.013 C 206.000 393.351,206.585 394.225,207.300 394.955 C 208.015 395.686,208.865 396.670,209.188 397.142 C 209.512 397.614,210.007 398.000,210.288 398.000 C 210.570 398.000,210.800 398.136,210.800 398.302 C 210.800 399.700,226.244 400.669,226.700 399.300 C 226.792 399.025,227.125 398.800,227.441 398.800 C 228.121 398.800,233.200 393.821,233.200 393.154 C 233.200 392.901,233.516 392.403,233.903 392.047 C 234.289 391.691,234.874 390.860,235.202 390.200 C 235.530 389.540,235.889 388.910,235.999 388.800 C 236.395 388.406,237.654 386.187,237.871 385.500 C 237.993 385.115,238.252 384.800,238.447 384.800 C 238.641 384.800,238.800 384.455,238.800 384.033 C 238.800 383.612,238.957 383.207,239.149 383.133 C 239.591 382.965,241.600 379.004,241.600 378.302 C 241.600 378.013,241.960 377.517,242.400 377.200 C 242.840 376.883,243.200 376.303,243.200 375.912 C 243.200 375.520,243.380 375.200,243.600 375.200 C 243.820 375.200,244.000 374.930,244.000 374.600 C 244.000 374.270,244.180 374.000,244.400 374.000 C 244.620 374.000,244.800 373.680,244.800 373.288 C 244.800 372.897,245.160 372.317,245.600 372.000 C 246.040 371.683,246.400 371.103,246.400 370.712 C 246.400 370.320,246.580 370.000,246.800 370.000 C 247.020 370.000,247.200 369.640,247.200 369.200 C 247.200 368.760,247.380 368.400,247.600 368.400 C 247.820 368.400,248.000 368.164,248.000 367.875 C 248.000 367.587,248.360 366.964,248.800 366.492 C 249.240 366.020,249.600 365.356,249.600 365.017 C 249.600 364.678,249.780 364.400,250.000 364.400 C 250.220 364.400,250.400 364.040,250.400 363.600 C 250.400 363.160,250.580 362.800,250.800 362.800 C 251.020 362.800,251.200 362.530,251.200 362.200 C 251.200 361.870,251.380 361.600,251.600 361.600 C 251.820 361.600,252.000 361.330,252.000 361.000 C 252.000 360.670,252.180 360.400,252.400 360.400 C 252.620 360.400,252.800 360.040,252.800 359.600 C 252.800 359.160,252.980 358.800,253.200 358.800 C 253.420 358.800,253.600 358.607,253.600 358.372 C 253.600 358.137,254.107 357.192,254.727 356.272 C 255.346 355.352,256.161 353.933,256.537 353.117 C 256.914 352.301,257.397 351.526,257.611 351.393 C 257.825 351.261,258.000 350.803,258.000 350.376 C 258.000 349.949,258.180 349.600,258.400 349.600 C 258.620 349.600,258.800 349.322,258.800 348.983 C 258.800 348.644,259.160 347.980,259.600 347.508 C 260.040 347.036,260.400 346.413,260.400 346.125 C 260.400 345.836,260.580 345.600,260.800 345.600 C 261.020 345.600,261.200 345.240,261.200 344.800 C 261.200 344.360,261.380 344.000,261.600 344.000 C 261.820 344.000,262.000 343.706,262.000 343.347 C 262.000 342.988,262.329 342.403,262.730 342.047 C 263.132 341.691,263.716 340.815,264.028 340.100 C 264.340 339.385,264.731 338.800,264.898 338.800 C 265.064 338.800,265.200 338.522,265.200 338.183 C 265.200 337.844,265.560 337.180,266.000 336.708 C 266.440 336.236,266.800 335.613,266.800 335.325 C 266.800 335.036,266.980 334.800,267.200 334.800 C 267.420 334.800,267.600 334.440,267.600 334.000 C 267.600 333.560,267.780 333.200,268.000 333.200 C 268.220 333.200,268.400 332.840,268.400 332.400 C 268.400 331.960,268.580 331.600,268.800 331.600 C 269.020 331.600,269.200 330.880,269.200 330.000 C 269.200 329.120,269.380 328.400,269.600 328.400 C 269.826 328.400,270.000 327.267,270.000 325.800 C 270.000 324.333,269.826 323.200,269.600 323.200 C 269.380 323.200,269.200 322.480,269.200 321.600 C 269.200 320.720,269.020 320.000,268.800 320.000 C 268.580 320.000,268.400 319.766,268.400 319.480 C 268.400 318.744,267.459 316.807,267.100 316.803 C 266.935 316.801,266.800 316.548,266.800 316.240 C 266.800 315.616,264.134 312.800,263.543 312.800 C 263.336 312.800,262.780 312.440,262.308 312.000 C 261.836 311.560,261.213 311.200,260.925 311.200 C 260.636 311.200,260.400 311.020,260.400 310.800 C 260.400 310.580,260.040 310.400,259.600 310.400 C 259.160 310.400,258.800 310.260,258.800 310.090 C 258.800 309.919,257.992 309.424,257.004 308.990 C 256.016 308.555,255.206 308.065,255.204 307.900 C 255.202 307.735,254.840 307.600,254.400 307.600 C 253.960 307.600,253.600 307.420,253.600 307.200 C 253.600 306.980,253.330 306.800,253.000 306.800 C 252.670 306.800,252.400 306.620,252.400 306.400 C 252.400 306.180,252.130 306.000,251.800 306.000 C 251.470 306.000,251.200 305.820,251.200 305.600 C 251.200 305.380,250.840 305.200,250.400 305.200 C 249.960 305.200,249.600 305.020,249.600 304.800 C 249.600 304.580,249.280 304.400,248.888 304.400 C 248.497 304.400,247.917 304.040,247.600 303.600 C 247.283 303.160,246.703 302.800,246.312 302.800 C 245.920 302.800,245.600 302.620,245.600 302.400 C 245.600 302.180,245.317 302.000,244.971 302.000 C 243.670 302.000,243.171 300.982,244.023 300.068 C 244.450 299.609,244.800 298.956,244.800 298.617 C 244.800 298.278,244.980 298.000,245.200 298.000 C 245.420 298.000,245.600 297.722,245.600 297.383 C 245.600 297.044,245.960 296.380,246.400 295.908 C 246.840 295.436,247.200 294.813,247.200 294.525 C 247.200 294.236,247.380 294.000,247.600 294.000 C 247.820 294.000,248.000 293.640,248.000 293.200 C 248.000 292.760,248.180 292.400,248.400 292.400 C 248.620 292.400,248.800 292.164,248.800 291.875 C 248.800 291.587,249.125 291.002,249.522 290.575 C 249.920 290.149,250.503 289.215,250.820 288.500 C 251.136 287.785,251.531 287.200,251.698 287.200 C 251.864 287.200,252.000 286.880,252.000 286.488 C 252.000 286.097,252.360 285.517,252.800 285.200 C 253.240 284.883,253.600 284.303,253.600 283.912 C 253.600 283.520,253.780 283.200,254.000 283.200 C 254.220 283.200,254.400 282.840,254.400 282.400 C 254.400 281.960,254.559 281.600,254.753 281.600 C 254.948 281.600,255.207 281.285,255.329 280.900 C 255.569 280.141,256.852 277.924,257.238 277.600 C 257.370 277.490,257.598 276.905,257.746 276.300 C 257.894 275.695,258.192 275.200,258.408 275.200 C 258.623 275.200,258.800 274.930,258.800 274.600 C 258.800 274.270,258.980 274.000,259.200 274.000 C 259.420 274.000,259.600 273.640,259.600 273.200 C 259.600 272.760,259.780 272.400,260.000 272.400 C 260.220 272.400,260.400 272.080,260.400 271.688 C 260.400 271.297,260.760 270.717,261.200 270.400 C 261.640 270.083,262.000 269.503,262.000 269.112 C 262.000 268.720,262.180 268.400,262.400 268.400 C 262.620 268.400,262.800 268.040,262.800 267.600 C 262.800 267.160,262.980 266.800,263.200 266.800 C 263.420 266.800,263.600 266.530,263.600 266.200 C 263.600 265.870,263.780 265.600,264.000 265.600 C 264.781 265.600,264.400 263.637,263.500 263.022 C 261.407 261.592,253.529 256.401,253.467 256.411 C 253.430 256.417,252.230 257.066,250.800 257.854 " stroke="none" fill="#fcd45a" fill-rule="evenodd"></path><path id="path4" d="M67.800 295.990 C 65.608 296.554,64.561 297.110,61.898 299.126 C 60.446 300.225,59.126 301.006,58.965 300.862 C 58.804 300.718,58.810 300.839,58.979 301.132 C 59.173 301.468,58.976 301.882,58.443 302.255 C 57.980 302.580,57.600 303.116,57.600 303.446 C 57.600 303.777,57.420 303.936,57.200 303.800 C 56.980 303.664,56.800 303.923,56.800 304.376 C 56.800 304.829,56.620 305.200,56.400 305.200 C 56.180 305.200,56.000 305.478,56.000 305.817 C 56.000 306.156,55.640 306.820,55.200 307.292 C 54.472 308.073,54.208 308.841,54.363 309.730 C 54.394 309.911,54.248 309.953,54.039 309.824 C 53.829 309.694,53.543 309.950,53.403 310.392 C 53.262 310.834,52.934 311.428,52.674 311.713 C 51.905 312.554,51.200 313.943,51.200 314.618 C 51.200 314.964,51.020 315.136,50.800 315.000 C 50.580 314.864,50.400 315.134,50.400 315.600 C 50.400 316.066,50.220 316.336,50.000 316.200 C 49.780 316.064,49.600 316.241,49.600 316.593 C 49.600 316.945,49.240 317.620,48.800 318.092 C 48.360 318.564,48.000 319.288,48.000 319.699 C 48.000 320.111,47.820 320.336,47.600 320.200 C 47.380 320.064,47.200 320.323,47.200 320.776 C 47.200 321.229,47.020 321.600,46.800 321.600 C 46.580 321.600,46.400 321.878,46.400 322.217 C 46.400 322.556,46.040 323.220,45.600 323.692 C 45.160 324.164,44.800 324.787,44.800 325.075 C 44.800 325.364,44.620 325.600,44.400 325.600 C 44.180 325.600,44.021 325.735,44.047 325.900 C 44.179 326.731,43.962 327.624,43.672 327.445 C 43.492 327.333,43.419 327.751,43.511 328.374 C 43.602 328.996,43.480 329.627,43.238 329.776 C 42.397 330.296,42.697 337.694,43.665 340.285 C 47.168 349.661,61.915 352.890,68.000 345.614 C 68.110 345.482,68.920 344.840,69.800 344.187 C 70.680 343.534,71.451 342.756,71.514 342.457 C 71.577 342.159,71.901 341.642,72.234 341.309 C 72.567 340.976,72.941 340.197,73.065 339.577 C 73.188 338.958,73.540 338.355,73.845 338.238 C 74.150 338.121,74.400 337.742,74.400 337.396 C 74.400 337.050,74.760 336.380,75.200 335.908 C 75.918 335.138,76.186 334.376,76.047 333.500 C 76.021 333.335,76.180 333.200,76.400 333.200 C 76.620 333.200,76.800 332.930,76.800 332.600 C 76.800 332.270,76.980 332.000,77.200 332.000 C 77.420 332.000,77.600 331.730,77.600 331.400 C 77.600 331.070,77.780 330.800,78.000 330.800 C 78.220 330.800,78.400 330.440,78.400 330.000 C 78.400 329.560,78.559 329.200,78.754 329.200 C 78.949 329.200,79.404 328.578,79.765 327.817 C 80.126 327.056,80.604 326.321,80.828 326.183 C 81.051 326.045,81.516 325.227,81.860 324.366 C 82.205 323.505,82.647 322.800,82.843 322.800 C 83.040 322.800,83.200 322.545,83.200 322.233 C 83.200 321.922,83.388 321.604,83.618 321.527 C 83.848 321.451,84.065 320.998,84.101 320.522 C 84.137 320.045,84.271 319.720,84.398 319.799 C 85.412 320.425,86.989 311.046,86.374 308.047 C 84.562 299.213,76.251 293.818,67.800 295.990 M150.800 295.953 C 148.543 296.697,146.108 298.058,144.600 299.418 C 143.720 300.212,142.595 301.023,142.100 301.221 C 141.307 301.537,140.979 302.275,141.163 303.330 C 141.194 303.511,141.035 303.545,140.810 303.406 C 140.584 303.267,140.400 303.433,140.400 303.776 C 140.400 304.119,140.265 304.401,140.100 304.403 C 139.720 304.407,138.802 306.358,138.794 307.180 C 138.788 307.726,138.742 307.729,138.400 307.200 C 138.086 306.715,138.011 306.772,138.006 307.500 C 138.003 307.995,137.809 308.400,137.576 308.400 C 137.343 308.400,137.255 308.565,137.380 308.768 C 137.505 308.970,137.336 309.407,137.004 309.739 C 136.672 310.071,136.400 310.536,136.400 310.771 C 136.400 311.007,136.241 311.200,136.047 311.200 C 135.852 311.200,135.593 311.515,135.471 311.900 C 135.183 312.809,133.988 314.753,133.100 315.758 C 132.715 316.194,132.400 316.787,132.400 317.075 C 132.400 317.364,132.220 317.600,132.000 317.600 C 131.780 317.600,131.600 317.872,131.600 318.205 C 131.600 318.914,130.889 320.230,129.900 321.355 C 129.515 321.793,129.200 322.488,129.200 322.899 C 129.200 323.311,129.020 323.536,128.800 323.400 C 128.580 323.264,128.400 323.523,128.400 323.976 C 128.400 324.429,128.259 324.800,128.088 324.800 C 127.759 324.800,126.658 327.184,126.748 327.700 C 126.777 327.865,126.626 328.000,126.413 328.000 C 126.199 328.000,126.129 328.270,126.256 328.601 C 126.383 328.932,126.252 330.381,125.966 331.822 C 123.069 346.396,140.321 355.412,151.532 345.184 C 152.485 344.315,153.505 343.468,153.800 343.302 C 154.094 343.136,154.395 342.730,154.468 342.400 C 154.540 342.070,154.915 341.509,155.300 341.153 C 155.685 340.797,156.000 340.344,156.000 340.146 C 156.000 339.948,156.450 339.123,157.000 338.314 C 157.550 337.505,158.000 336.473,158.000 336.021 C 158.000 335.570,158.180 335.200,158.400 335.200 C 158.620 335.200,158.800 334.930,158.800 334.600 C 158.800 334.270,158.935 333.999,159.100 333.997 C 159.437 333.993,160.400 332.075,160.400 331.409 C 160.400 331.171,160.760 330.717,161.200 330.400 C 161.640 330.083,162.000 329.543,162.000 329.200 C 162.000 328.857,162.360 328.317,162.800 328.000 C 163.240 327.683,163.600 327.003,163.600 326.488 C 163.600 325.966,163.777 325.662,164.000 325.800 C 164.220 325.936,164.400 325.759,164.400 325.407 C 164.400 325.055,164.760 324.380,165.200 323.908 C 165.640 323.436,166.000 322.723,166.000 322.325 C 166.000 321.926,166.158 321.600,166.351 321.600 C 166.545 321.600,166.927 321.060,167.200 320.400 C 167.473 319.740,167.855 319.200,168.049 319.200 C 168.242 319.200,168.400 318.840,168.400 318.400 C 168.400 317.960,168.544 317.600,168.719 317.600 C 168.895 317.600,169.065 316.925,169.097 316.100 C 169.128 315.275,169.272 313.242,169.417 311.581 C 170.287 301.578,159.980 292.926,150.800 295.953 M317.400 295.844 C 313.520 296.820,306.630 302.040,306.068 304.431 C 305.995 304.740,305.815 305.084,305.668 305.196 C 305.240 305.522,304.400 307.146,304.400 307.648 C 304.400 307.900,304.085 308.399,303.700 308.757 C 303.315 309.116,302.758 309.836,302.462 310.359 C 302.167 310.882,301.582 311.915,301.162 312.655 C 300.743 313.395,300.023 314.675,299.562 315.500 C 299.102 316.325,298.562 317.171,298.362 317.380 C 298.163 317.589,298.000 318.002,298.000 318.297 C 298.000 318.592,297.640 319.220,297.200 319.692 C 296.760 320.164,296.400 320.787,296.400 321.075 C 296.400 321.364,296.265 321.603,296.100 321.606 C 295.935 321.610,295.360 322.510,294.821 323.606 C 294.283 324.703,293.687 325.600,293.498 325.600 C 293.308 325.600,293.257 325.769,293.385 325.976 C 293.513 326.183,293.379 326.574,293.088 326.846 C 292.795 327.120,292.633 327.845,292.725 328.470 C 292.816 329.092,292.716 329.600,292.503 329.600 C 291.899 329.600,291.558 334.865,292.007 337.253 C 293.797 346.763,303.798 352.252,312.619 348.566 C 315.209 347.484,320.800 342.709,320.800 341.580 C 320.800 341.345,320.980 341.264,321.200 341.400 C 321.420 341.536,321.600 341.299,321.600 340.873 C 321.600 340.447,321.870 339.874,322.200 339.600 C 322.530 339.326,322.800 338.919,322.800 338.695 C 322.800 338.472,323.340 337.411,324.000 336.338 C 324.660 335.266,325.200 334.187,325.200 333.941 C 325.200 333.695,325.588 333.158,326.061 332.747 C 326.535 332.336,326.713 332.000,326.458 332.000 C 326.202 332.000,326.535 331.433,327.197 330.741 C 327.858 330.048,328.400 329.148,328.400 328.741 C 328.400 328.333,328.580 328.000,328.800 328.000 C 329.020 328.000,329.200 327.539,329.200 326.976 C 329.200 326.396,329.373 326.060,329.600 326.200 C 329.820 326.336,330.000 326.167,330.000 325.824 C 330.000 325.481,330.180 325.200,330.400 325.200 C 330.620 325.200,330.800 324.930,330.800 324.600 C 330.800 324.270,330.941 324.000,331.112 324.000 C 331.284 324.000,331.646 323.505,331.917 322.900 C 332.577 321.423,333.342 320.153,334.084 319.303 C 334.899 318.368,335.777 311.408,335.462 308.388 C 334.606 300.204,325.422 293.825,317.400 295.844 " stroke="none" fill="#b4f3fc" fill-rule="evenodd"></path></g></svg>